<svg xmlns="http://www.w3.org/2000/svg" viewBox="0 0 222.4 263.54" xmlns:v="https://vecta.io/nano"><path d="M221.97 23.91s1.2 5.39-5.99 6.59S81.15 59.86 81.15 59.86s-.6 1.2-4.19-1.2-49.14-22.77-49.14-22.77-14.38.6-14.38 11.99 1.8 15.58 8.99 20.37 59.33 26.37 59.33 26.37l133.63-29.36s6.74-.69 6.67 5.95-4.27 6.64-4.27 6.64L81.76 107.21s-3.06.6-3.93 0-47.01-22.17-47.01-22.17-16.78-1.97-17.38 11 2.4 18.96 10.19 22.56 57.53 25.17 57.53 25.17l134.83-28.76s4.35-.89 6.07 4.35-3.67 7.04-3.67 7.04L79.96 156.96l-49.74-22.17s-14.53-2.81-16.85 7.28.07 22.08 10.26 25.08 58.13 26.37 58.13 26.37l133.84-29.06s7.22-.73 6.8 5.48c-.41 6.21-4.61 6.21-4.61 6.21L80.56 206.11l-69.51-31.16s-24.57-26.37 1.2-48.54c0 0-26.97-24.57 0-49.14 0 0-34.15-38.35 11.69-53.33L136.27.53s4.79-1.8 9.59 1.2l71.91 16.78s3 .6 4.19 5.39z"/><path d="M19.16 262.03H3.04c-.4 0-.69-.1-.87-.29s-.27-.51-.27-.94v-22.13c0-.43.09-.75.27-.94s.47-.29.87-.29h4.91c.4 0 .69.1.87.29s.27.51.27.94v16.91h4.34v-5.53c0-.43.09-.75.27-.94s.47-.29.87-.29h4.59c.4 0 .69.1.87.29s.27.51.27.94v10.76c0 .43-.09.75-.27.94s-.47.29-.87.29zm20.58 0h-14.7c-.4 0-.69-.1-.87-.29s-.27-.51-.27-.94v-22.13c0-.43.09-.75.27-.94s.47-.29.87-.29h14.7c.4 0 .69.1.87.29s.27.51.27.94v4c0 .43-.09.75-.27.94s-.47.29-.87.29H31v2.63h6.18c.4 0 .69.1.87.29s.27.51.27.94v3.66c0 .43-.09.75-.27.94s-.47.29-.87.29H31v2.94h8.74c.4 0 .69.1.87.29s.27.51.27.94v4c0 .43-.09.75-.27.94s-.47.29-.87.29zm10.77 0h-4.75c-.4 0-.69-.1-.87-.29s-.27-.51-.27-.94v-22.13c0-.43.09-.75.27-.94s.47-.29.87-.29h3.29c.4 0 .74.07 1.03.21s.56.38.84.72l6.14 7.58v-7.28c0-.43.09-.75.27-.94s.47-.29.87-.29h4.75c.4 0 .69.1.87.29s.27.51.27.94v22.13c0 .43-.09.75-.27.94s-.47.29-.87.29H58.2c-.4 0-.69-.1-.87-.29s-.27-.51-.27-.94v-4.2l-5.42-7.07v11.27c0 .43-.09.75-.27.94s-.47.29-.87.29zm29.77 0H69.61c-.4 0-.69-.1-.87-.29s-.27-.51-.27-.94v-22.13c0-.43.09-.75.27-.94s.47-.29.87-.29h10.67c2.64 0 4.6.57 5.88 1.71s1.92 2.89 1.92 5.26v10.66c0 2.37-.64 4.12-1.92 5.26s-3.24 1.71-5.88 1.71zm-4.62-18.07v11.61h3.77c.51 0 .88-.14 1.12-.41s.36-.69.36-1.26v-8.3c0-.57-.12-.99-.36-1.25s-.62-.39-1.12-.39h-3.77zm29.86 16.84c0 .43-.09.75-.27.94s-.47.29-.87.29h-4.66c-.4 0-.69-.1-.87-.29s-.27-.51-.27-.94v-9.02c0-.68.1-1.47.3-2.36s.51-1.92.93-3.11l2.76-7.75c.13-.39.32-.67.59-.85.26-.18.61-.27 1.03-.27h8.52c.4 0 .73.09 1 .27.26.18.46.47.59.85l2.75 7.75c.42 1.18.73 2.22.93 3.11s.3 1.67.3 2.36v9.02c0 .43-.09.75-.27.94s-.47.29-.87.29h-4.78c-.42 0-.73-.1-.93-.29s-.3-.51-.3-.94v-4.78h-5.61v4.78zm1.8-16.19l-1.49 5.19h4.97l-1.49-5.19c-.08-.2-.17-.35-.27-.44s-.21-.14-.33-.14h-.79c-.13 0-.24.05-.33.14s-.19.24-.27.44zm35.13 17.42h-12.16c-.4 0-.69-.1-.87-.29s-.27-.51-.27-.94v-22.13c0-.43.09-.75.27-.94s.47-.29.87-.29h10.1c2.07 0 3.6.43 4.59 1.28s1.49 2.17 1.49 3.95v1.64c0 .96-.15 1.74-.46 2.34a2.98 2.98 0 0 1-1.41 1.35c1.35.14 2.35.64 3.01 1.5.65.87.98 2.13.98 3.79v3.14c0 1.91-.5 3.33-1.5 4.24s-2.55 1.37-4.64 1.37zm-6.18-18.79v3.69h2.69c.4 0 .7-.11.9-.34s.3-.57.3-1.02v-.96c0-.46-.1-.8-.3-1.02-.2-.23-.5-.34-.9-.34h-2.69zm0 8.95v4.03h4.12c.4 0 .7-.11.9-.34s.3-.57.3-1.02v-1.33c0-.46-.1-.79-.3-1.01s-.5-.33-.9-.33h-4.12zm35.16 3.38c0 1.05-.14 2-.43 2.85s-.79 1.58-1.52 2.19c-.73.6-1.73 1.08-3.01 1.42s-2.9.51-4.86.51-3.59-.17-4.88-.51-2.3-.81-3.02-1.42c-.73-.6-1.24-1.33-1.52-2.19-.29-.85-.43-1.8-.43-2.85v-11.65c0-1.05.14-2 .43-2.85.28-.85.79-1.59 1.52-2.2s1.74-1.09 3.02-1.43 2.91-.51 4.88-.51 3.58.17 4.86.51 2.28.82 3.01 1.43c.73.62 1.24 1.35 1.52 2.2.29.85.43 1.81.43 2.85v11.65zm-12.48-1.23c0 .46.16.84.48 1.14s1.04.46 2.18.46 1.87-.15 2.19-.46.48-.69.48-1.14v-9.19a1.49 1.49 0 0 0-.48-1.11c-.32-.31-1.04-.46-2.19-.46s-1.87.15-2.18.46a1.49 1.49 0 0 0-.48 1.11v9.19zm35.82 1.23c0 1.05-.14 2-.43 2.85s-.79 1.58-1.52 2.19c-.73.6-1.73 1.08-3.01 1.42s-2.9.51-4.86.51-3.59-.17-4.88-.51-2.3-.81-3.02-1.42c-.73-.6-1.24-1.33-1.52-2.19-.29-.85-.43-1.8-.43-2.85v-11.65c0-1.05.14-2 .43-2.85.28-.85.79-1.59 1.52-2.2s1.74-1.09 3.02-1.43 2.91-.51 4.88-.51 3.58.17 4.86.51 2.28.82 3.01 1.43c.73.62 1.23 1.35 1.52 2.2s.43 1.81.43 2.85v11.65zm-12.48-1.23c0 .46.16.84.48 1.14s1.04.46 2.18.46 1.87-.15 2.19-.46.48-.69.48-1.14v-9.19a1.49 1.49 0 0 0-.48-1.11c-.32-.31-1.04-.46-2.19-.46s-1.87.15-2.18.46a1.49 1.49 0 0 0-.48 1.11v9.19zm22.55 7.69h-4.91c-.4 0-.69-.1-.87-.29s-.27-.51-.27-.94v-22.13c0-.43.09-.75.27-.94s.47-.29.87-.29h4.91c.4 0 .69.1.87.29s.27.51.27.94v7.86h1.27l3.26-7.96c.15-.41.35-.7.6-.87s.58-.26.98-.26h4.88c.36 0 .6.1.73.29s.12.47-.03.84l-3.23 7.96c1.18.07 2.13.52 2.83 1.35.71.83 1.06 1.93 1.06 3.3v9.63c0 .43-.09.75-.27.94s-.47.29-.87.29h-4.88c-.4 0-.69-.1-.87-.29s-.27-.51-.27-.94v-6.66c0-.36-.08-.65-.25-.85s-.42-.31-.76-.31h-4.18v7.82c0 .43-.09.75-.27.94s-.47.29-.87.29z" fill="none" stroke="#000" stroke-miterlimit="10" stroke-width="2"/></svg>