<svg xmlns="http://www.w3.org/2000/svg" xmlns:xlink="http://www.w3.org/1999/xlink" viewBox="0 0 345.04 63.53" xmlns:v="https://vecta.io/nano"><path d="M68.43 7.37s.37 1.66-1.85 2.03-41.56 9.05-41.56 9.05-.18.37-1.29-.37-15.15-7.02-15.15-7.02-4.43.18-4.43 3.69.55 4.8 2.77 6.28 18.29 8.13 18.29 8.13l41.2-9.05s2.08-.21 2.06 1.83-1.32 2.05-1.32 2.05l-41.93 9.05s-.94.18-1.21 0S9.52 26.2 9.52 26.2s-5.17-.61-5.36 3.39.74 5.85 3.14 6.95c2.4 1.11 17.73 7.76 17.73 7.76l41.56-8.87s1.34-.27 1.87 1.34-1.13 2.17-1.13 2.17l-42.67 9.42-15.33-6.84s-4.48-.87-5.2 2.24.02 6.81 3.16 7.73 17.92 8.13 17.92 8.13l41.26-8.96s2.22-.23 2.1 1.69-1.42 1.91-1.42 1.91l-42.3 9.24L3.4 53.92s-7.57-8.13.37-14.96c0 0-8.31-7.57 0-15.15 0 0-10.53-11.82 3.6-16.44L42.01.16s1.48-.55 2.96.37L67.14 5.7s.92.18 1.29 1.66z" fill="#fff"/><g fill="none" stroke="#fff" stroke-miterlimit="10" stroke-width="1.54"><path d="M107.37 45.08H88.23c-.48 0-.82-.11-1.03-.32s-.32-.56-.32-1.03V19.36c0-.48.11-.82.32-1.03s.56-.32 1.03-.32h5.83c.48 0 .82.11 1.03.32s.32.56.32 1.03v18.62h5.15v-6.09c0-.48.11-.82.32-1.03s.56-.32 1.03-.32h5.45c.48 0 .82.11 1.03.32s.32.56.32 1.03v11.85c0 .48-.11.82-.32 1.03s-.56.32-1.03.32zm24.44 0h-17.45c-.48 0-.82-.11-1.03-.32s-.32-.56-.32-1.03V19.36c0-.48.11-.82.32-1.03s.56-.32 1.03-.32h17.45c.48 0 .82.11 1.03.32s.32.56.32 1.03v4.4c0 .48-.11.82-.32 1.03s-.56.32-1.03.32h-10.38v2.9h7.33c.48 0 .82.11 1.03.32s.32.56.32 1.03v4.02c0 .48-.11.82-.32 1.03s-.56.32-1.03.32h-7.33v3.23h10.38c.48 0 .82.11 1.03.32s.32.56.32 1.03v4.4c0 .48-.11.82-.32 1.03s-.56.32-1.03.32zm12.79 0h-5.64c-.48 0-.82-.11-1.03-.32s-.32-.56-.32-1.03V19.36c0-.48.11-.82.32-1.03s.56-.32 1.03-.32h3.91c.48 0 .88.08 1.22.23s.67.41 1 .79l7.3 8.35v-8.01c0-.48.11-.82.32-1.03s.56-.32 1.03-.32h5.64c.48 0 .82.11 1.03.32s.32.56.32 1.03v24.37c0 .48-.11.82-.32 1.03s-.56.32-1.03.32h-5.64c-.48 0-.82-.11-1.03-.32s-.32-.56-.32-1.03v-4.63l-6.43-7.79v12.41c0 .48-.11.82-.32 1.03s-.56.32-1.03.32zm35.35 0h-12.67c-.48 0-.82-.11-1.03-.32s-.32-.56-.32-1.03V19.36c0-.48.11-.82.32-1.03s.56-.32 1.03-.32h12.67c3.13 0 5.46.63 6.98 1.88s2.28 3.18 2.28 5.79v11.73c0 2.61-.76 4.54-2.28 5.79s-3.84 1.88-6.98 1.88zm-5.49-19.9v12.79h4.48c.6 0 1.05-.15 1.33-.45.29-.3.43-.76.43-1.39v-9.14c0-.63-.14-1.08-.43-1.37s-.73-.43-1.33-.43h-4.48zm35.65 18.55c0 .48-.11.82-.32 1.03s-.56.32-1.03.32h-5.53c-.48 0-.82-.11-1.03-.32s-.32-.56-.32-1.03V33.8c0-.75.12-1.62.36-2.6s.61-2.12 1.11-3.42l3.27-8.54c.15-.43.38-.74.7-.94.31-.2.72-.3 1.22-.3h10.12c.48 0 .87.1 1.19.3.31.2.54.51.7.94l3.27 8.54c.5 1.3.87 2.44 1.11 3.42s.36 1.84.36 2.6v9.93c0 .48-.11.82-.32 1.03s-.56.32-1.03.32h-5.68c-.5 0-.87-.11-1.11-.32s-.36-.56-.36-1.03v-5.27h-6.66v5.27zm2.14-17.83l-1.77 5.72h5.91l-1.77-5.72c-.1-.23-.21-.39-.32-.49a.56.56 0 0 0-.39-.15h-.94a.56.56 0 0 0-.39.15c-.11.1-.22.26-.32.49zm41.9 19.18h-14.44c-.48 0-.82-.11-1.03-.32s-.32-.56-.32-1.03V19.36c0-.48.11-.82.32-1.03s.56-.32 1.03-.32h12c2.46 0 4.27.47 5.45 1.41s1.77 2.39 1.77 4.34v1.81c0 1.05-.18 1.91-.54 2.58-.36.66-.92 1.16-1.67 1.49 1.6.15 2.8.7 3.57 1.65.78.95 1.17 2.34 1.17 4.17v3.46c0 2.11-.6 3.66-1.79 4.66s-3.03 1.5-5.51 1.5zm-7.33-20.68v4.06h3.2c.48 0 .83-.12 1.07-.38.24-.25.36-.63.36-1.13V25.9c0-.5-.12-.88-.36-1.13s-.6-.38-1.07-.38h-3.2zm0 9.85v4.44h4.89c.48 0 .83-.12 1.07-.38.24-.25.36-.63.36-1.13v-1.47c0-.5-.12-.87-.36-1.11s-.6-.36-1.07-.36h-4.89z"/><use xlink:href="#B"/><use xlink:href="#B" x="27.71"/><path d="M328.24 45.08h-5.83c-.48 0-.82-.11-1.03-.32s-.32-.56-.32-1.03V19.36c0-.48.11-.82.32-1.03s.56-.32 1.03-.32h5.83c.48 0 .82.11 1.03.32s.32.56.32 1.03v8.65h1.5l3.87-8.76c.18-.45.41-.77.71-.96s.69-.28 1.17-.28h5.79c.43 0 .71.11.86.32s.14.52-.04.92l-3.84 8.76c1.4.08 2.53.57 3.37 1.49s1.26 2.12 1.26 3.63v10.61c0 .48-.11.82-.32 1.03s-.56.32-1.03.32h-5.79c-.48 0-.82-.11-1.03-.32s-.32-.56-.32-1.03v-7.33c0-.4-.1-.71-.3-.94s-.5-.34-.9-.34h-4.96v8.61c0 .48-.11.82-.32 1.03s-.56.32-1.03.32z"/></g><defs ><path id="B" d="M288.57 37.97c0 1.15-.17 2.2-.51 3.14s-.94 1.74-1.8 2.41c-.87.66-2.06 1.18-3.57 1.56-1.52.38-3.44.56-5.77.56s-4.26-.19-5.79-.56c-1.53-.38-2.73-.9-3.59-1.56s-1.47-1.47-1.81-2.41-.51-1.99-.51-3.14V25.15c0-1.15.17-2.2.51-3.14s.94-1.75 1.81-2.43 2.06-1.2 3.59-1.58 3.46-.56 5.79-.56 4.26.19 5.77.56c1.52.38 2.71.9 3.57 1.58s1.47 1.49 1.8 2.43c.34.94.51 1.99.51 3.14v12.82zm-14.82-1.35c0 .5.19.92.56 1.26s1.24.51 2.59.51 2.22-.17 2.6-.51.56-.76.56-1.26V26.5c0-.48-.19-.88-.56-1.22-.38-.34-1.24-.51-2.6-.51s-2.22.17-2.59.51c-.38.34-.56.75-.56 1.22v10.12z"/></defs></svg>