<?xml version="1.0" encoding="UTF-8"?><svg id="Layer_2" xmlns="http://www.w3.org/2000/svg" xmlns:xlink="http://www.w3.org/1999/xlink" viewBox="0 0 2002 2002"><defs><style>.cls-1,.cls-2{stroke:#fff;}.cls-1,.cls-2,.cls-3,.cls-4,.cls-5,.cls-6,.cls-7{fill:none;stroke-miterlimit:10;}.cls-1,.cls-5,.cls-6{stroke-width:1.54px;}.cls-8{fill:url(#linear-gradient-2);}.cls-9{fill:#fff;}.cls-2,.cls-3,.cls-7{stroke-width:2px;}.cls-3,.cls-4,.cls-6{stroke:#000;}.cls-4{stroke-width:2px;}.cls-5,.cls-7{stroke:#662d91;}.cls-10{fill:url(#linear-gradient);}</style><linearGradient id="linear-gradient" x1="294.38" y1="538.33" x2="399.76" y2="342.48" gradientUnits="userSpaceOnUse"><stop offset=".28" stop-color="#f7931e"/><stop offset=".43" stop-color="#ac5e59"/><stop offset=".54" stop-color="#793a81"/><stop offset=".6" stop-color="#662d91"/></linearGradient><linearGradient id="linear-gradient-2" x1="205.22" y1="1520.24" x2="237.7" y2="1459.86" xlink:href="#linear-gradient"/></defs><g id="Layer_1-2"><rect x="1330" y="981.13" width="671" height="1019.58"/><rect x="659.78" y="1" width="670.22" height="977.85"/><g><path class="cls-10" d="m453.79,364.1s1.2,5.39-5.99,6.59-134.83,29.36-134.83,29.36c0,0-.6,1.2-4.19-1.2s-49.14-22.77-49.14-22.77c0,0-14.38.6-14.38,11.99s1.8,15.58,8.99,20.37,59.33,26.37,59.33,26.37l133.63-29.36s6.74-.69,6.67,5.95c-.07,6.64-4.27,6.64-4.27,6.64l-136.03,29.36s-3.06.6-3.93,0-47.01-22.17-47.01-22.17c0,0-16.78-1.97-17.38,11-.6,12.97,2.4,18.96,10.19,22.56,7.79,3.6,57.53,25.17,57.53,25.17l134.83-28.76s4.35-.89,6.07,4.35-3.67,7.04-3.67,7.04l-138.43,30.56-49.74-22.17s-14.53-2.81-16.85,7.28.07,22.08,10.26,25.08c10.19,3,58.13,26.37,58.13,26.37l133.84-29.06s7.22-.73,6.8,5.48c-.41,6.21-4.61,6.21-4.61,6.21l-137.23,29.96-69.51-31.16s-24.57-26.37,1.2-48.54c0,0-26.97-24.57,0-49.14,0,0-34.15-38.35,11.69-53.33l112.35-23.37s4.79-1.8,9.59,1.2l71.91,16.78s3,.6,4.19,5.39Z"/><g><path class="cls-7" d="m250.98,602.22h-16.12c-.4,0-.69-.1-.87-.29-.18-.19-.27-.51-.27-.94v-22.13c0-.43.09-.75.27-.94.18-.19.47-.29.87-.29h4.91c.4,0,.69.1.87.29.18.19.27.51.27.94v16.91h4.34v-5.53c0-.43.09-.75.27-.94.18-.19.47-.29.87-.29h4.59c.4,0,.69.1.87.29.18.19.27.51.27.94v10.76c0,.43-.09.75-.27.94-.18.19-.47.29-.87.29Z"/><path class="cls-7" d="m271.57,602.22h-14.7c-.4,0-.69-.1-.87-.29-.18-.19-.27-.51-.27-.94v-22.13c0-.43.09-.75.27-.94.18-.19.47-.29.87-.29h14.7c.4,0,.69.1.87.29.18.19.27.51.27.94v4c0,.43-.09.75-.27.94-.18.19-.47.29-.87.29h-8.74v2.63h6.18c.4,0,.69.1.87.29.18.19.27.51.27.94v3.66c0,.43-.09.75-.27.94-.18.19-.47.29-.87.29h-6.18v2.94h8.74c.4,0,.69.1.87.29.18.19.27.51.27.94v4c0,.43-.09.75-.27.94-.18.19-.47.29-.87.29Z"/><path class="cls-7" d="m282.33,602.22h-4.75c-.4,0-.69-.1-.87-.29-.18-.19-.27-.51-.27-.94v-22.13c0-.43.09-.75.27-.94.18-.19.47-.29.87-.29h3.29c.4,0,.74.07,1.03.21s.56.38.84.72l6.14,7.58v-7.28c0-.43.09-.75.27-.94.18-.19.47-.29.87-.29h4.75c.4,0,.69.1.87.29.18.19.27.51.27.94v22.13c0,.43-.09.75-.27.94-.18.19-.47.29-.87.29h-4.75c-.4,0-.69-.1-.87-.29-.18-.19-.27-.51-.27-.94v-4.2l-5.42-7.07v11.27c0,.43-.09.75-.27.94-.18.19-.47.29-.87.29Z"/><path class="cls-7" d="m312.1,602.22h-10.67c-.4,0-.69-.1-.87-.29-.18-.19-.27-.51-.27-.94v-22.13c0-.43.09-.75.27-.94.18-.19.47-.29.87-.29h10.67c2.64,0,4.6.57,5.88,1.71,1.28,1.14,1.92,2.89,1.92,5.26v10.66c0,2.37-.64,4.12-1.92,5.26-1.28,1.14-3.24,1.71-5.88,1.71Zm-4.62-18.07v11.61h3.77c.51,0,.88-.14,1.12-.41.24-.27.36-.69.36-1.26v-8.3c0-.57-.12-.99-.36-1.25-.24-.26-.62-.39-1.12-.39h-3.77Z"/><path class="cls-7" d="m337.34,600.99c0,.43-.09.75-.27.94-.18.19-.47.29-.87.29h-4.66c-.4,0-.69-.1-.87-.29-.18-.19-.27-.51-.27-.94v-9.02c0-.68.1-1.47.3-2.36.2-.89.51-1.92.93-3.11l2.76-7.75c.13-.39.32-.67.59-.85.26-.18.61-.27,1.03-.27h8.52c.4,0,.73.09,1,.27.26.18.46.47.59.85l2.76,7.75c.42,1.18.73,2.22.93,3.11.2.89.3,1.67.3,2.36v9.02c0,.43-.09.75-.27.94-.18.19-.47.29-.87.29h-4.78c-.42,0-.73-.1-.93-.29s-.3-.51-.3-.94v-4.78h-5.61v4.78Zm1.81-16.19l-1.49,5.19h4.97l-1.49-5.19c-.08-.2-.17-.35-.27-.44-.1-.09-.21-.14-.33-.14h-.79c-.13,0-.24.05-.33.14-.09.09-.19.24-.27.44Z"/><path class="cls-7" d="m374.27,602.22h-12.16c-.4,0-.69-.1-.87-.29-.18-.19-.27-.51-.27-.94v-22.13c0-.43.09-.75.27-.94.18-.19.47-.29.87-.29h10.1c2.07,0,3.6.43,4.59,1.28.99.85,1.49,2.17,1.49,3.95v1.64c0,.96-.15,1.74-.46,2.34-.31.6-.78,1.05-1.41,1.35,1.35.14,2.35.64,3.01,1.5.65.87.98,2.13.98,3.79v3.14c0,1.91-.5,3.33-1.5,4.24-1,.91-2.55,1.37-4.64,1.37Zm-6.18-18.79v3.69h2.69c.4,0,.7-.11.9-.34.2-.23.3-.57.3-1.02v-.96c0-.46-.1-.8-.3-1.02-.2-.23-.5-.34-.9-.34h-2.69Zm0,8.95v4.03h4.12c.4,0,.7-.11.9-.34s.3-.57.3-1.02v-1.33c0-.46-.1-.79-.3-1.01s-.5-.33-.9-.33h-4.12Z"/><path class="cls-7" d="m403.25,595.76c0,1.05-.14,2-.43,2.85-.29.85-.79,1.58-1.52,2.19-.73.6-1.73,1.08-3.01,1.42-1.28.34-2.9.51-4.86.51s-3.59-.17-4.88-.51c-1.29-.34-2.3-.81-3.02-1.42-.73-.6-1.24-1.33-1.52-2.19-.29-.85-.43-1.8-.43-2.85v-11.65c0-1.05.14-2,.43-2.85.28-.85.79-1.59,1.52-2.2.73-.61,1.74-1.09,3.02-1.43,1.29-.34,2.91-.51,4.88-.51s3.58.17,4.86.51c1.28.34,2.28.82,3.01,1.43.73.62,1.24,1.35,1.52,2.2.28.85.43,1.81.43,2.85v11.65Zm-12.48-1.23c0,.46.16.84.48,1.14.32.31,1.05.46,2.19.46s1.87-.15,2.19-.46c.32-.31.48-.69.48-1.14v-9.19c0-.43-.16-.8-.48-1.11-.32-.31-1.05-.46-2.19-.46s-1.87.15-2.19.46c-.32.31-.48.68-.48,1.11v9.19Z"/><path class="cls-7" d="m426.59,595.76c0,1.05-.14,2-.43,2.85-.29.85-.79,1.58-1.52,2.19-.73.6-1.73,1.08-3.01,1.42-1.28.34-2.9.51-4.86.51s-3.59-.17-4.88-.51c-1.29-.34-2.3-.81-3.02-1.42-.73-.6-1.24-1.33-1.52-2.19-.29-.85-.43-1.8-.43-2.85v-11.65c0-1.05.14-2,.43-2.85.28-.85.79-1.59,1.52-2.2.73-.61,1.74-1.09,3.02-1.43,1.29-.34,2.91-.51,4.88-.51s3.58.17,4.86.51c1.28.34,2.28.82,3.01,1.43.73.62,1.23,1.35,1.52,2.2.29.85.43,1.81.43,2.85v11.65Zm-12.48-1.23c0,.46.16.84.48,1.14.32.31,1.05.46,2.19.46s1.87-.15,2.19-.46c.32-.31.48-.69.48-1.14v-9.19c0-.43-.16-.8-.48-1.11-.32-.31-1.04-.46-2.19-.46s-1.87.15-2.19.46c-.32.31-.48.68-.48,1.11v9.19Z"/><path class="cls-7" d="m436.66,602.22h-4.91c-.4,0-.69-.1-.87-.29s-.27-.51-.27-.94v-22.13c0-.43.09-.75.27-.94s.47-.29.87-.29h4.91c.4,0,.69.1.87.29.18.19.27.51.27.94v7.86h1.27l3.26-7.96c.15-.41.35-.7.6-.87.25-.17.58-.26.98-.26h4.88c.36,0,.6.1.73.29.13.19.12.47-.03.84l-3.23,7.96c1.18.07,2.13.52,2.83,1.35.71.83,1.06,1.93,1.06,3.3v9.63c0,.43-.09.75-.27.94-.18.19-.47.29-.87.29h-4.88c-.4,0-.69-.1-.87-.29-.18-.19-.27-.51-.27-.94v-6.66c0-.36-.08-.65-.25-.85s-.42-.31-.76-.31h-4.18v7.82c0,.43-.09.75-.27.94-.18.19-.47.29-.87.29Z"/></g></g><g><path class="cls-9" d="m1111.07,364.1s1.2,5.39-5.99,6.59-134.83,29.36-134.83,29.36c0,0-.6,1.2-4.19-1.2s-49.14-22.77-49.14-22.77c0,0-14.38.6-14.38,11.99s1.8,15.58,8.99,20.37,59.33,26.37,59.33,26.37l133.63-29.36s6.74-.69,6.67,5.95c-.07,6.64-4.27,6.64-4.27,6.64l-136.03,29.36s-3.06.6-3.93,0-47.01-22.17-47.01-22.17c0,0-16.78-1.97-17.38,11-.6,12.97,2.4,18.96,10.19,22.56,7.79,3.6,57.53,25.17,57.53,25.17l134.83-28.76s4.35-.89,6.07,4.35-3.67,7.04-3.67,7.04l-138.43,30.56-49.74-22.17s-14.53-2.81-16.85,7.28.07,22.08,10.26,25.08c10.19,3,58.13,26.37,58.13,26.37l133.84-29.06s7.22-.73,6.8,5.48c-.41,6.21-4.61,6.21-4.61,6.21l-137.23,29.96-69.51-31.16s-24.57-26.37,1.2-48.54c0,0-26.97-24.57,0-49.14,0,0-34.15-38.35,11.69-53.33l112.35-23.37s4.79-1.8,9.59,1.2l71.91,16.78s3,.6,4.19,5.39Z"/><g><path class="cls-2" d="m908.26,602.22h-16.12c-.4,0-.69-.1-.87-.29-.18-.19-.27-.51-.27-.94v-22.13c0-.43.09-.75.27-.94.18-.19.47-.29.87-.29h4.91c.4,0,.69.1.87.29.18.19.27.51.27.94v16.91h4.34v-5.53c0-.43.09-.75.27-.94.18-.19.47-.29.87-.29h4.59c.4,0,.69.1.87.29.18.19.27.51.27.94v10.76c0,.43-.09.75-.27.94-.18.19-.47.29-.87.29Z"/><path class="cls-2" d="m928.84,602.22h-14.7c-.4,0-.69-.1-.87-.29-.18-.19-.27-.51-.27-.94v-22.13c0-.43.09-.75.27-.94.18-.19.47-.29.87-.29h14.7c.4,0,.69.1.87.29.18.19.27.51.27.94v4c0,.43-.09.75-.27.94-.18.19-.47.29-.87.29h-8.74v2.63h6.18c.4,0,.69.1.87.29.18.19.27.51.27.94v3.66c0,.43-.09.75-.27.94-.18.19-.47.29-.87.29h-6.18v2.94h8.74c.4,0,.69.1.87.29.18.19.27.51.27.94v4c0,.43-.09.75-.27.94-.18.19-.47.29-.87.29Z"/><path class="cls-2" d="m939.61,602.22h-4.75c-.4,0-.69-.1-.87-.29-.18-.19-.27-.51-.27-.94v-22.13c0-.43.09-.75.27-.94.18-.19.47-.29.87-.29h3.29c.4,0,.74.07,1.03.21s.56.38.84.72l6.14,7.58v-7.28c0-.43.09-.75.27-.94.18-.19.47-.29.87-.29h4.75c.4,0,.69.1.87.29.18.19.27.51.27.94v22.13c0,.43-.09.75-.27.94-.18.19-.47.29-.87.29h-4.75c-.4,0-.69-.1-.87-.29-.18-.19-.27-.51-.27-.94v-4.2l-5.42-7.07v11.27c0,.43-.09.75-.27.94-.18.19-.47.29-.87.29Z"/><path class="cls-2" d="m969.38,602.22h-10.67c-.4,0-.69-.1-.87-.29-.18-.19-.27-.51-.27-.94v-22.13c0-.43.09-.75.27-.94.18-.19.47-.29.87-.29h10.67c2.64,0,4.6.57,5.88,1.71,1.28,1.14,1.92,2.89,1.92,5.26v10.66c0,2.37-.64,4.12-1.92,5.26-1.28,1.14-3.24,1.71-5.88,1.71Zm-4.62-18.07v11.61h3.77c.51,0,.88-.14,1.12-.41.24-.27.36-.69.36-1.26v-8.3c0-.57-.12-.99-.36-1.25-.24-.26-.62-.39-1.12-.39h-3.77Z"/><path class="cls-2" d="m994.62,600.99c0,.43-.09.75-.27.94-.18.19-.47.29-.87.29h-4.66c-.4,0-.69-.1-.87-.29-.18-.19-.27-.51-.27-.94v-9.02c0-.68.1-1.47.3-2.36.2-.89.51-1.92.93-3.11l2.76-7.75c.13-.39.32-.67.59-.85.26-.18.61-.27,1.03-.27h8.52c.4,0,.73.09,1,.27.26.18.46.47.59.85l2.75,7.75c.42,1.18.73,2.22.93,3.11.2.89.3,1.67.3,2.36v9.02c0,.43-.09.75-.27.94s-.47.29-.87.29h-4.78c-.42,0-.73-.1-.93-.29s-.3-.51-.3-.94v-4.78h-5.61v4.78Zm1.81-16.19l-1.49,5.19h4.97l-1.49-5.19c-.08-.2-.17-.35-.27-.44-.1-.09-.21-.14-.33-.14h-.79c-.13,0-.24.05-.33.14-.09.09-.19.24-.27.44Z"/><path class="cls-2" d="m1031.55,602.22h-12.16c-.4,0-.69-.1-.87-.29s-.27-.51-.27-.94v-22.13c0-.43.09-.75.27-.94s.47-.29.87-.29h10.1c2.07,0,3.6.43,4.59,1.28.99.85,1.49,2.17,1.49,3.95v1.64c0,.96-.15,1.74-.46,2.34-.31.6-.78,1.05-1.41,1.35,1.35.14,2.35.64,3.01,1.5.65.87.98,2.13.98,3.79v3.14c0,1.91-.5,3.33-1.5,4.24-1,.91-2.55,1.37-4.64,1.37Zm-6.18-18.79v3.69h2.69c.4,0,.7-.11.9-.34.2-.23.3-.57.3-1.02v-.96c0-.46-.1-.8-.3-1.02-.2-.23-.5-.34-.9-.34h-2.69Zm0,8.95v4.03h4.12c.4,0,.7-.11.9-.34.2-.23.3-.57.3-1.02v-1.33c0-.46-.1-.79-.3-1.01-.2-.22-.5-.33-.9-.33h-4.12Z"/><path class="cls-2" d="m1060.53,595.76c0,1.05-.14,2-.43,2.85-.29.85-.79,1.58-1.52,2.19-.73.6-1.73,1.08-3.01,1.42-1.28.34-2.9.51-4.86.51s-3.59-.17-4.88-.51-2.3-.81-3.02-1.42c-.73-.6-1.24-1.33-1.52-2.19-.29-.85-.43-1.8-.43-2.85v-11.65c0-1.05.14-2,.43-2.85.28-.85.79-1.59,1.52-2.2.73-.61,1.74-1.09,3.02-1.43s2.91-.51,4.88-.51,3.58.17,4.86.51c1.28.34,2.28.82,3.01,1.43.73.62,1.24,1.35,1.52,2.2.29.85.43,1.81.43,2.85v11.65Zm-12.48-1.23c0,.46.16.84.48,1.14s1.04.46,2.18.46,1.87-.15,2.19-.46.48-.69.48-1.14v-9.19c0-.43-.16-.8-.48-1.11-.32-.31-1.04-.46-2.19-.46s-1.87.15-2.18.46c-.32.31-.48.68-.48,1.11v9.19Z"/><path class="cls-2" d="m1083.87,595.76c0,1.05-.14,2-.43,2.85-.29.85-.79,1.58-1.52,2.19-.73.6-1.73,1.08-3.01,1.42-1.28.34-2.9.51-4.86.51s-3.59-.17-4.88-.51-2.3-.81-3.02-1.42c-.73-.6-1.24-1.33-1.52-2.19-.29-.85-.43-1.8-.43-2.85v-11.65c0-1.05.14-2,.43-2.85.28-.85.79-1.59,1.52-2.2.73-.61,1.74-1.09,3.02-1.43s2.91-.51,4.88-.51,3.58.17,4.86.51c1.28.34,2.28.82,3.01,1.43.73.62,1.23,1.35,1.52,2.2.29.85.43,1.81.43,2.85v11.65Zm-12.48-1.23c0,.46.16.84.48,1.14s1.04.46,2.18.46,1.87-.15,2.19-.46c.32-.31.48-.69.48-1.14v-9.19c0-.43-.16-.8-.48-1.11-.32-.31-1.04-.46-2.19-.46s-1.87.15-2.18.46c-.32.31-.48.68-.48,1.11v9.19Z"/><path class="cls-2" d="m1093.94,602.22h-4.91c-.4,0-.69-.1-.87-.29s-.27-.51-.27-.94v-22.13c0-.43.09-.75.27-.94s.47-.29.87-.29h4.91c.4,0,.69.1.87.29.18.19.27.51.27.94v7.86h1.27l3.26-7.96c.15-.41.35-.7.6-.87.25-.17.58-.26.98-.26h4.88c.36,0,.6.1.73.29.13.19.12.47-.03.84l-3.23,7.96c1.18.07,2.13.52,2.83,1.35.71.83,1.06,1.93,1.06,3.3v9.63c0,.43-.09.75-.27.94-.18.19-.47.29-.87.29h-4.88c-.4,0-.69-.1-.87-.29-.18-.19-.27-.51-.27-.94v-6.66c0-.36-.08-.65-.25-.85s-.42-.31-.76-.31h-4.18v7.82c0,.43-.09.75-.27.94-.18.19-.47.29-.87.29Z"/></g></g><g><path d="m1766.9,364.1s1.2,5.39-5.99,6.59-134.83,29.36-134.83,29.36c0,0-.6,1.2-4.19-1.2s-49.14-22.77-49.14-22.77c0,0-14.38.6-14.38,11.99s1.8,15.58,8.99,20.37c7.19,4.79,59.33,26.37,59.33,26.37l133.63-29.36s6.74-.69,6.67,5.95c-.07,6.64-4.27,6.64-4.27,6.64l-136.03,29.36s-3.06.6-3.93,0-47.01-22.17-47.01-22.17c0,0-16.78-1.97-17.38,11-.6,12.97,2.4,18.96,10.19,22.56,7.79,3.6,57.53,25.17,57.53,25.17l134.83-28.76s4.35-.89,6.07,4.35-3.67,7.04-3.67,7.04l-138.43,30.56-49.74-22.17s-14.53-2.81-16.85,7.28.07,22.08,10.26,25.08,58.13,26.37,58.13,26.37l133.84-29.06s7.22-.73,6.8,5.48c-.41,6.21-4.61,6.21-4.61,6.21l-137.23,29.96-69.51-31.16s-24.57-26.37,1.2-48.54c0,0-26.97-24.57,0-49.14,0,0-34.15-38.35,11.69-53.33l112.35-23.37s4.79-1.8,9.59,1.2l71.91,16.78s3,.6,4.19,5.39Z"/><g><path class="cls-3" d="m1564.09,602.22h-16.12c-.4,0-.69-.1-.87-.29s-.27-.51-.27-.94v-22.13c0-.43.09-.75.27-.94s.47-.29.87-.29h4.91c.4,0,.69.1.87.29s.27.51.27.94v16.91h4.34v-5.53c0-.43.09-.75.27-.94.18-.19.47-.29.87-.29h4.59c.4,0,.69.1.87.29.18.19.27.51.27.94v10.76c0,.43-.09.75-.27.94-.18.19-.47.29-.87.29Z"/><path class="cls-3" d="m1584.68,602.22h-14.7c-.4,0-.69-.1-.87-.29-.18-.19-.27-.51-.27-.94v-22.13c0-.43.09-.75.27-.94.18-.19.47-.29.87-.29h14.7c.4,0,.69.1.87.29.18.19.27.51.27.94v4c0,.43-.09.75-.27.94-.18.19-.47.29-.87.29h-8.74v2.63h6.18c.4,0,.69.1.87.29.18.19.27.51.27.94v3.66c0,.43-.09.75-.27.94-.18.19-.47.29-.87.29h-6.18v2.94h8.74c.4,0,.69.1.87.29.18.19.27.51.27.94v4c0,.43-.09.75-.27.94-.18.19-.47.29-.87.29Z"/><path class="cls-3" d="m1595.44,602.22h-4.75c-.4,0-.69-.1-.87-.29s-.27-.51-.27-.94v-22.13c0-.43.09-.75.27-.94s.47-.29.87-.29h3.29c.4,0,.74.07,1.03.21s.56.38.84.72l6.14,7.58v-7.28c0-.43.09-.75.27-.94s.47-.29.87-.29h4.75c.4,0,.69.1.87.29s.27.51.27.94v22.13c0,.43-.09.75-.27.94s-.47.29-.87.29h-4.75c-.4,0-.69-.1-.87-.29s-.27-.51-.27-.94v-4.2l-5.42-7.07v11.27c0,.43-.09.75-.27.94s-.47.29-.87.29Z"/><path class="cls-3" d="m1625.21,602.22h-10.67c-.4,0-.69-.1-.87-.29-.18-.19-.27-.51-.27-.94v-22.13c0-.43.09-.75.27-.94.18-.19.47-.29.87-.29h10.67c2.64,0,4.6.57,5.88,1.71s1.92,2.89,1.92,5.26v10.66c0,2.37-.64,4.12-1.92,5.26s-3.24,1.71-5.88,1.71Zm-4.62-18.07v11.61h3.77c.51,0,.88-.14,1.12-.41.24-.27.36-.69.36-1.26v-8.3c0-.57-.12-.99-.36-1.25-.24-.26-.62-.39-1.12-.39h-3.77Z"/><path class="cls-3" d="m1650.46,600.99c0,.43-.09.75-.27.94-.18.19-.47.29-.87.29h-4.66c-.4,0-.69-.1-.87-.29s-.27-.51-.27-.94v-9.02c0-.68.1-1.47.3-2.36.2-.89.51-1.92.93-3.11l2.76-7.75c.13-.39.32-.67.59-.85.26-.18.61-.27,1.03-.27h8.52c.4,0,.73.09,1,.27.26.18.46.47.59.85l2.75,7.75c.42,1.18.73,2.22.93,3.11.2.89.3,1.67.3,2.36v9.02c0,.43-.09.75-.27.94s-.47.29-.87.29h-4.78c-.42,0-.73-.1-.93-.29-.2-.19-.3-.51-.3-.94v-4.78h-5.61v4.78Zm1.8-16.19l-1.49,5.19h4.97l-1.49-5.19c-.08-.2-.17-.35-.27-.44-.1-.09-.21-.14-.33-.14h-.79c-.13,0-.24.05-.33.14s-.19.24-.27.44Z"/><path class="cls-3" d="m1687.38,602.22h-12.16c-.4,0-.69-.1-.87-.29s-.27-.51-.27-.94v-22.13c0-.43.09-.75.27-.94s.47-.29.87-.29h10.1c2.07,0,3.6.43,4.59,1.28.99.85,1.49,2.17,1.49,3.95v1.64c0,.96-.15,1.74-.46,2.34-.31.6-.78,1.05-1.41,1.35,1.35.14,2.35.64,3.01,1.5.65.87.98,2.13.98,3.79v3.14c0,1.91-.5,3.33-1.5,4.24-1,.91-2.55,1.37-4.64,1.37Zm-6.18-18.79v3.69h2.69c.4,0,.7-.11.9-.34.2-.23.3-.57.3-1.02v-.96c0-.46-.1-.8-.3-1.02-.2-.23-.5-.34-.9-.34h-2.69Zm0,8.95v4.03h4.12c.4,0,.7-.11.9-.34.2-.23.3-.57.3-1.02v-1.33c0-.46-.1-.79-.3-1.01-.2-.22-.5-.33-.9-.33h-4.12Z"/><path class="cls-3" d="m1716.36,595.76c0,1.05-.14,2-.43,2.85-.29.85-.79,1.58-1.52,2.19-.73.6-1.73,1.08-3.01,1.42-1.28.34-2.9.51-4.86.51s-3.59-.17-4.88-.51-2.3-.81-3.02-1.42c-.73-.6-1.24-1.33-1.52-2.19-.29-.85-.43-1.8-.43-2.85v-11.65c0-1.05.14-2,.43-2.85.28-.85.79-1.59,1.52-2.2.73-.61,1.74-1.09,3.02-1.43s2.91-.51,4.88-.51,3.58.17,4.86.51c1.28.34,2.28.82,3.01,1.43.73.62,1.24,1.35,1.52,2.2.29.85.43,1.81.43,2.85v11.65Zm-12.48-1.23c0,.46.16.84.48,1.14s1.04.46,2.18.46,1.87-.15,2.19-.46.48-.69.48-1.14v-9.19c0-.43-.16-.8-.48-1.11-.32-.31-1.04-.46-2.19-.46s-1.87.15-2.18.46c-.32.31-.48.68-.48,1.11v9.19Z"/><path class="cls-3" d="m1739.7,595.76c0,1.05-.14,2-.43,2.85-.29.85-.79,1.58-1.52,2.19-.73.6-1.73,1.08-3.01,1.42-1.28.34-2.9.51-4.86.51s-3.59-.17-4.88-.51-2.3-.81-3.02-1.42c-.73-.6-1.24-1.33-1.52-2.19-.29-.85-.43-1.8-.43-2.85v-11.65c0-1.05.14-2,.43-2.85.28-.85.79-1.59,1.52-2.2.73-.61,1.74-1.09,3.02-1.43s2.91-.51,4.88-.51,3.58.17,4.86.51c1.28.34,2.28.82,3.01,1.43.73.62,1.23,1.35,1.52,2.2.29.85.43,1.81.43,2.85v11.65Zm-12.48-1.23c0,.46.16.84.48,1.14s1.04.46,2.18.46,1.87-.15,2.19-.46c.32-.31.48-.69.48-1.14v-9.19c0-.43-.16-.8-.48-1.11-.32-.31-1.04-.46-2.19-.46s-1.87.15-2.18.46c-.32.31-.48.68-.48,1.11v9.19Z"/><path class="cls-3" d="m1749.77,602.22h-4.91c-.4,0-.69-.1-.87-.29s-.27-.51-.27-.94v-22.13c0-.43.09-.75.27-.94s.47-.29.87-.29h4.91c.4,0,.69.1.87.29.18.19.27.51.27.94v7.86h1.27l3.26-7.96c.15-.41.35-.7.6-.87.25-.17.58-.26.98-.26h4.88c.36,0,.6.1.73.29.13.19.12.47-.03.84l-3.23,7.96c1.18.07,2.13.52,2.83,1.35.71.83,1.06,1.93,1.06,3.3v9.63c0,.43-.09.75-.27.94-.18.19-.47.29-.87.29h-4.88c-.4,0-.69-.1-.87-.29-.18-.19-.27-.51-.27-.94v-6.66c0-.36-.08-.65-.25-.85s-.42-.31-.76-.31h-4.18v7.82c0,.43-.09.75-.27.94-.18.19-.47.29-.87.29Z"/></g></g><g><path class="cls-8" d="m254.36,1466.53s.37,1.66-1.85,2.03-41.56,9.05-41.56,9.05c0,0-.18.37-1.29-.37s-15.15-7.02-15.15-7.02c0,0-4.43.18-4.43,3.69s.55,4.8,2.77,6.28,18.29,8.13,18.29,8.13l41.2-9.05s2.08-.21,2.06,1.83-1.32,2.05-1.32,2.05l-41.93,9.05s-.94.18-1.21,0-14.49-6.84-14.49-6.84c0,0-5.17-.61-5.36,3.39s.74,5.85,3.14,6.95c2.4,1.11,17.73,7.76,17.73,7.76l41.56-8.87s1.34-.27,1.87,1.34-1.13,2.17-1.13,2.17l-42.67,9.42-15.33-6.84s-4.48-.87-5.2,2.24.02,6.81,3.16,7.73,17.92,8.13,17.92,8.13l41.26-8.96s2.22-.23,2.1,1.69-1.42,1.91-1.42,1.91l-42.3,9.24-21.43-9.61s-7.57-8.13.37-14.96c0,0-8.31-7.57,0-15.15,0,0-10.53-11.82,3.6-16.44l34.64-7.2s1.48-.55,2.96.37l22.17,5.17s.92.18,1.29,1.66Z"/><g><path class="cls-5" d="m293.3,1504.24h-19.14c-.48,0-.82-.11-1.03-.32-.21-.21-.32-.56-.32-1.03v-24.37c0-.48.11-.82.32-1.03.21-.21.56-.32,1.03-.32h5.83c.48,0,.82.11,1.03.32.21.21.32.56.32,1.03v18.62h5.15v-6.09c0-.48.11-.82.32-1.03.21-.21.56-.32,1.03-.32h5.45c.48,0,.82.11,1.03.32.21.21.32.56.32,1.03v11.85c0,.48-.11.82-.32,1.03-.21.21-.56.32-1.03.32Z"/><path class="cls-5" d="m317.75,1504.24h-17.45c-.48,0-.82-.11-1.03-.32-.21-.21-.32-.56-.32-1.03v-24.37c0-.48.11-.82.32-1.03.21-.21.56-.32,1.03-.32h17.45c.48,0,.82.11,1.03.32.21.21.32.56.32,1.03v4.4c0,.48-.11.82-.32,1.03-.21.21-.56.32-1.03.32h-10.38v2.9h7.33c.48,0,.82.11,1.03.32.21.21.32.56.32,1.03v4.02c0,.48-.11.82-.32,1.03-.21.21-.56.32-1.03.32h-7.33v3.23h10.38c.48,0,.82.11,1.03.32.21.21.32.56.32,1.03v4.4c0,.48-.11.82-.32,1.03-.21.21-.56.32-1.03.32Z"/><path class="cls-5" d="m330.54,1504.24h-5.64c-.48,0-.82-.11-1.03-.32-.21-.21-.32-.56-.32-1.03v-24.37c0-.48.11-.82.32-1.03.21-.21.56-.32,1.03-.32h3.91c.48,0,.88.08,1.22.23s.67.41,1,.79l7.3,8.35v-8.01c0-.48.11-.82.32-1.03.21-.21.56-.32,1.03-.32h5.64c.48,0,.82.11,1.03.32.21.21.32.56.32,1.03v24.37c0,.48-.11.82-.32,1.03-.21.21-.56.32-1.03.32h-5.64c-.48,0-.82-.11-1.03-.32-.21-.21-.32-.56-.32-1.03v-4.63l-6.43-7.79v12.41c0,.48-.11.82-.32,1.03-.21.21-.56.32-1.03.32Z"/><path class="cls-5" d="m365.89,1504.24h-12.67c-.48,0-.82-.11-1.03-.32-.21-.21-.32-.56-.32-1.03v-24.37c0-.48.11-.82.32-1.03.21-.21.56-.32,1.03-.32h12.67c3.13,0,5.46.63,6.98,1.88,1.52,1.25,2.28,3.18,2.28,5.79v11.73c0,2.61-.76,4.54-2.28,5.79-1.52,1.25-3.84,1.88-6.98,1.88Zm-5.49-19.9v12.79h4.48c.6,0,1.05-.15,1.33-.45.29-.3.43-.76.43-1.39v-9.14c0-.63-.14-1.08-.43-1.37-.29-.29-.73-.43-1.33-.43h-4.48Z"/><path class="cls-5" d="m396.05,1502.89c0,.48-.11.82-.32,1.03-.21.21-.56.32-1.03.32h-5.53c-.48,0-.82-.11-1.03-.32-.21-.21-.32-.56-.32-1.03v-9.93c0-.75.12-1.62.36-2.6.24-.98.61-2.12,1.11-3.42l3.27-8.54c.15-.43.38-.74.7-.94.31-.2.72-.3,1.22-.3h10.12c.48,0,.87.1,1.19.3.31.2.54.51.7.94l3.27,8.54c.5,1.3.87,2.44,1.11,3.42.24.98.36,1.84.36,2.6v9.93c0,.48-.11.82-.32,1.03-.21.21-.56.32-1.03.32h-5.68c-.5,0-.87-.11-1.11-.32-.24-.21-.36-.56-.36-1.03v-5.27h-6.66v5.27Zm2.14-17.83l-1.77,5.72h5.9l-1.77-5.72c-.1-.23-.21-.39-.32-.49-.11-.1-.24-.15-.39-.15h-.94c-.15,0-.28.05-.4.15-.11.1-.22.26-.32.49Z"/><path class="cls-5" d="m440.09,1504.24h-14.44c-.48,0-.82-.11-1.03-.32-.21-.21-.32-.56-.32-1.03v-24.37c0-.48.11-.82.32-1.03.21-.21.56-.32,1.03-.32h12c2.46,0,4.27.47,5.45,1.41,1.18.94,1.77,2.39,1.77,4.34v1.81c0,1.05-.18,1.91-.55,2.58-.36.66-.92,1.16-1.67,1.49,1.6.15,2.8.7,3.57,1.65.78.95,1.17,2.34,1.17,4.17v3.46c0,2.11-.6,3.66-1.79,4.66-1.19,1-3.03,1.5-5.51,1.5Zm-7.33-20.68v4.06h3.2c.48,0,.83-.12,1.07-.38.24-.25.36-.63.36-1.13v-1.05c0-.5-.12-.88-.36-1.13-.24-.25-.6-.38-1.07-.38h-3.2Zm0,9.85v4.44h4.89c.48,0,.83-.12,1.07-.38.24-.25.36-.63.36-1.13v-1.47c0-.5-.12-.87-.36-1.11-.24-.24-.6-.36-1.07-.36h-4.89Z"/><path class="cls-5" d="m474.5,1497.13c0,1.15-.17,2.2-.51,3.14s-.94,1.74-1.81,2.41c-.87.66-2.06,1.18-3.57,1.56s-3.44.56-5.77.56-4.26-.19-5.79-.56c-1.53-.38-2.73-.9-3.59-1.56-.86-.66-1.47-1.47-1.81-2.41s-.51-1.99-.51-3.14v-12.82c0-1.15.17-2.2.51-3.14s.94-1.75,1.81-2.43c.87-.68,2.06-1.2,3.59-1.58,1.53-.38,3.46-.56,5.79-.56s4.26.19,5.77.56,2.71.9,3.57,1.58c.86.68,1.47,1.49,1.81,2.43s.51,1.99.51,3.14v12.82Zm-14.82-1.35c0,.5.19.92.56,1.26s1.24.51,2.59.51,2.22-.17,2.6-.51.56-.76.56-1.26v-10.12c0-.48-.19-.88-.56-1.22-.38-.34-1.24-.51-2.6-.51s-2.22.17-2.59.51c-.38.34-.56.75-.56,1.22v10.12Z"/><path class="cls-5" d="m502.22,1497.13c0,1.15-.17,2.2-.51,3.14s-.94,1.74-1.81,2.41c-.87.66-2.06,1.18-3.57,1.56s-3.44.56-5.77.56-4.26-.19-5.79-.56c-1.53-.38-2.73-.9-3.59-1.56-.86-.66-1.47-1.47-1.81-2.41s-.51-1.99-.51-3.14v-12.82c0-1.15.17-2.2.51-3.14s.94-1.75,1.81-2.43c.87-.68,2.06-1.2,3.59-1.58,1.53-.38,3.46-.56,5.79-.56s4.26.19,5.77.56,2.71.9,3.57,1.58c.86.68,1.47,1.49,1.81,2.43s.51,1.99.51,3.14v12.82Zm-14.82-1.35c0,.5.19.92.56,1.26s1.24.51,2.59.51,2.22-.17,2.6-.51.56-.76.56-1.26v-10.12c0-.48-.19-.88-.56-1.22-.38-.34-1.24-.51-2.6-.51s-2.22.17-2.59.51c-.38.34-.56.75-.56,1.22v10.12Z"/><path class="cls-5" d="m514.18,1504.24h-5.83c-.48,0-.82-.11-1.03-.32-.21-.21-.32-.56-.32-1.03v-24.37c0-.48.11-.82.32-1.03.21-.21.56-.32,1.03-.32h5.83c.48,0,.82.11,1.03.32.21.21.32.56.32,1.03v8.65h1.5l3.87-8.76c.18-.45.41-.77.71-.96.3-.19.69-.28,1.17-.28h5.79c.43,0,.71.11.86.32.15.21.14.52-.04.92l-3.84,8.76c1.4.08,2.53.57,3.37,1.49.84.92,1.26,2.12,1.26,3.63v10.61c0,.48-.11.82-.32,1.03-.21.21-.56.32-1.03.32h-5.79c-.48,0-.82-.11-1.03-.32-.21-.21-.32-.56-.32-1.03v-7.33c0-.4-.1-.71-.3-.94s-.5-.34-.9-.34h-4.96v8.61c0,.48-.11.82-.32,1.03-.21.21-.56.32-1.03.32Z"/></g></g><g><path class="cls-9" d="m1548.73,1466.53s.37,1.66-1.85,2.03-41.56,9.05-41.56,9.05c0,0-.18.37-1.29-.37s-15.15-7.02-15.15-7.02c0,0-4.43.18-4.43,3.69s.55,4.8,2.77,6.28,18.29,8.13,18.29,8.13l41.2-9.05s2.08-.21,2.06,1.83-1.32,2.05-1.32,2.05l-41.93,9.05s-.94.18-1.21,0-14.49-6.84-14.49-6.84c0,0-5.17-.61-5.36,3.39s.74,5.85,3.14,6.95c2.4,1.11,17.73,7.76,17.73,7.76l41.56-8.87s1.34-.27,1.87,1.34-1.13,2.17-1.13,2.17l-42.67,9.42-15.33-6.84s-4.48-.87-5.2,2.24.02,6.81,3.16,7.73,17.92,8.13,17.92,8.13l41.26-8.96s2.22-.23,2.1,1.69-1.42,1.91-1.42,1.91l-42.3,9.24-21.43-9.61s-7.57-8.13.37-14.96c0,0-8.31-7.57,0-15.15,0,0-10.53-11.82,3.6-16.44l34.64-7.2s1.48-.55,2.96.37l22.17,5.17s.92.18,1.29,1.66Z"/><g><path class="cls-1" d="m1587.67,1504.24h-19.14c-.48,0-.82-.11-1.03-.32-.21-.21-.32-.56-.32-1.03v-24.37c0-.48.11-.82.32-1.03s.56-.32,1.03-.32h5.83c.48,0,.82.11,1.03.32.21.21.32.56.32,1.03v18.62h5.15v-6.09c0-.48.11-.82.32-1.03.21-.21.56-.32,1.03-.32h5.45c.48,0,.82.11,1.03.32.21.21.32.56.32,1.03v11.85c0,.48-.11.82-.32,1.03s-.56.32-1.03.32Z"/><path class="cls-1" d="m1612.12,1504.24h-17.45c-.48,0-.82-.11-1.03-.32-.21-.21-.32-.56-.32-1.03v-24.37c0-.48.11-.82.32-1.03s.56-.32,1.03-.32h17.45c.48,0,.82.11,1.03.32.21.21.32.56.32,1.03v4.4c0,.48-.11.82-.32,1.03-.21.21-.56.32-1.03.32h-10.38v2.9h7.33c.48,0,.82.11,1.03.32.21.21.32.56.32,1.03v4.02c0,.48-.11.82-.32,1.03-.21.21-.56.32-1.03.32h-7.33v3.23h10.38c.48,0,.82.11,1.03.32s.32.56.32,1.03v4.4c0,.48-.11.82-.32,1.03s-.56.32-1.03.32Z"/><path class="cls-1" d="m1624.9,1504.24h-5.64c-.48,0-.82-.11-1.03-.32-.21-.21-.32-.56-.32-1.03v-24.37c0-.48.11-.82.32-1.03s.56-.32,1.03-.32h3.91c.48,0,.88.08,1.22.23.34.15.67.41,1,.79l7.3,8.35v-8.01c0-.48.11-.82.32-1.03s.56-.32,1.03-.32h5.64c.48,0,.82.11,1.03.32.21.21.32.56.32,1.03v24.37c0,.48-.11.82-.32,1.03-.21.21-.56.32-1.03.32h-5.64c-.48,0-.82-.11-1.03-.32-.21-.21-.32-.56-.32-1.03v-4.63l-6.43-7.79v12.41c0,.48-.11.82-.32,1.03-.21.21-.56.32-1.03.32Z"/><path class="cls-1" d="m1660.26,1504.24h-12.67c-.48,0-.82-.11-1.03-.32-.21-.21-.32-.56-.32-1.03v-24.37c0-.48.11-.82.32-1.03s.56-.32,1.03-.32h12.67c3.13,0,5.46.63,6.98,1.88,1.52,1.25,2.28,3.18,2.28,5.79v11.73c0,2.61-.76,4.54-2.28,5.79-1.52,1.25-3.84,1.88-6.98,1.88Zm-5.49-19.9v12.79h4.48c.6,0,1.05-.15,1.33-.45.29-.3.43-.76.43-1.39v-9.14c0-.63-.14-1.08-.43-1.37-.29-.29-.73-.43-1.33-.43h-4.48Z"/><path class="cls-1" d="m1690.42,1502.89c0,.48-.11.82-.32,1.03s-.56.32-1.03.32h-5.53c-.48,0-.82-.11-1.03-.32-.21-.21-.32-.56-.32-1.03v-9.93c0-.75.12-1.62.36-2.6.24-.98.61-2.12,1.11-3.42l3.27-8.54c.15-.43.38-.74.7-.94.31-.2.72-.3,1.22-.3h10.12c.48,0,.87.1,1.19.3.31.2.54.51.7.94l3.27,8.54c.5,1.3.87,2.44,1.11,3.42.24.98.36,1.84.36,2.6v9.93c0,.48-.11.82-.32,1.03s-.56.32-1.03.32h-5.68c-.5,0-.87-.11-1.11-.32-.24-.21-.36-.56-.36-1.03v-5.27h-6.66v5.27Zm2.14-17.83l-1.77,5.72h5.91l-1.77-5.72c-.1-.23-.21-.39-.32-.49-.11-.1-.24-.15-.39-.15h-.94c-.15,0-.28.05-.39.15-.11.1-.22.26-.32.49Z"/><path class="cls-1" d="m1734.46,1504.24h-14.44c-.48,0-.82-.11-1.03-.32-.21-.21-.32-.56-.32-1.03v-24.37c0-.48.11-.82.32-1.03s.56-.32,1.03-.32h12c2.46,0,4.27.47,5.45,1.41s1.77,2.39,1.77,4.34v1.81c0,1.05-.18,1.91-.54,2.58-.36.66-.92,1.16-1.67,1.49,1.6.15,2.8.7,3.57,1.65.78.95,1.17,2.34,1.17,4.17v3.46c0,2.11-.6,3.66-1.79,4.66s-3.03,1.5-5.51,1.5Zm-7.33-20.68v4.06h3.2c.48,0,.83-.12,1.07-.38.24-.25.36-.63.36-1.13v-1.05c0-.5-.12-.88-.36-1.13-.24-.25-.6-.38-1.07-.38h-3.2Zm0,9.85v4.44h4.89c.48,0,.83-.12,1.07-.38.24-.25.36-.63.36-1.13v-1.47c0-.5-.12-.87-.36-1.11-.24-.24-.6-.36-1.07-.36h-4.89Z"/><path class="cls-1" d="m1768.87,1497.13c0,1.15-.17,2.2-.51,3.14-.34.94-.94,1.74-1.8,2.41-.87.66-2.06,1.18-3.57,1.56-1.52.38-3.44.56-5.77.56s-4.26-.19-5.79-.56c-1.53-.38-2.73-.9-3.59-1.56s-1.47-1.47-1.81-2.41c-.34-.94-.51-1.99-.51-3.14v-12.82c0-1.15.17-2.2.51-3.14.34-.94.94-1.75,1.81-2.43s2.06-1.2,3.59-1.58c1.53-.38,3.46-.56,5.79-.56s4.26.19,5.77.56c1.52.38,2.71.9,3.57,1.58.86.68,1.47,1.49,1.8,2.43.34.94.51,1.99.51,3.14v12.82Zm-14.82-1.35c0,.5.19.92.56,1.26s1.24.51,2.59.51,2.22-.17,2.6-.51.56-.76.56-1.26v-10.12c0-.48-.19-.88-.56-1.22-.38-.34-1.24-.51-2.6-.51s-2.22.17-2.59.51c-.38.34-.56.75-.56,1.22v10.12Z"/><path class="cls-1" d="m1796.59,1497.13c0,1.15-.17,2.2-.51,3.14-.34.94-.94,1.74-1.8,2.41-.87.66-2.06,1.18-3.57,1.56-1.52.38-3.44.56-5.77.56s-4.26-.19-5.79-.56c-1.53-.38-2.73-.9-3.59-1.56s-1.47-1.47-1.81-2.41c-.34-.94-.51-1.99-.51-3.14v-12.82c0-1.15.17-2.2.51-3.14.34-.94.94-1.75,1.81-2.43s2.06-1.2,3.59-1.58c1.53-.38,3.46-.56,5.79-.56s4.26.19,5.77.56c1.52.38,2.71.9,3.57,1.58.86.68,1.47,1.49,1.8,2.43.34.94.51,1.99.51,3.14v12.82Zm-14.82-1.35c0,.5.19.92.56,1.26s1.24.51,2.59.51,2.22-.17,2.6-.51.56-.76.56-1.26v-10.12c0-.48-.19-.88-.56-1.22-.38-.34-1.24-.51-2.6-.51s-2.22.17-2.59.51c-.38.34-.56.75-.56,1.22v10.12Z"/><path class="cls-1" d="m1808.55,1504.24h-5.83c-.48,0-.82-.11-1.03-.32s-.32-.56-.32-1.03v-24.37c0-.48.11-.82.32-1.03.21-.21.56-.32,1.03-.32h5.83c.48,0,.82.11,1.03.32.21.21.32.56.32,1.03v8.65h1.5l3.87-8.76c.18-.45.41-.77.71-.96.3-.19.69-.28,1.17-.28h5.79c.43,0,.71.11.86.32.15.21.14.52-.04.92l-3.84,8.76c1.4.08,2.53.57,3.37,1.49.84.92,1.26,2.12,1.26,3.63v10.61c0,.48-.11.82-.32,1.03s-.56.32-1.03.32h-5.79c-.48,0-.82-.11-1.03-.32s-.32-.56-.32-1.03v-7.33c0-.4-.1-.71-.3-.94-.2-.23-.5-.34-.9-.34h-4.96v8.61c0,.48-.11.82-.32,1.03-.21.21-.56.32-1.03.32Z"/></g></g><g><path d="m845.73,1466.53s.37,1.66-1.85,2.03-41.56,9.05-41.56,9.05c0,0-.18.37-1.29-.37s-15.15-7.02-15.15-7.02c0,0-4.43.18-4.43,3.69s.55,4.8,2.77,6.28,18.29,8.13,18.29,8.13l41.2-9.05s2.08-.21,2.06,1.83-1.32,2.05-1.32,2.05l-41.93,9.05s-.94.18-1.21,0-14.49-6.84-14.49-6.84c0,0-5.17-.61-5.36,3.39s.74,5.85,3.14,6.95c2.4,1.11,17.73,7.76,17.73,7.76l41.56-8.87s1.34-.27,1.87,1.34-1.13,2.17-1.13,2.17l-42.67,9.42-15.33-6.84s-4.48-.87-5.2,2.24.02,6.81,3.16,7.73c3.14.92,17.92,8.13,17.92,8.13l41.26-8.96s2.22-.23,2.1,1.69-1.42,1.91-1.42,1.91l-42.3,9.24-21.43-9.61s-7.57-8.13.37-14.96c0,0-8.31-7.57,0-15.15,0,0-10.53-11.82,3.6-16.44l34.64-7.2s1.48-.55,2.96.37l22.17,5.17s.92.18,1.29,1.66Z"/><g><path class="cls-6" d="m884.67,1504.24h-19.14c-.48,0-.82-.11-1.03-.32-.21-.21-.32-.56-.32-1.03v-24.37c0-.48.11-.82.32-1.03.21-.21.56-.32,1.03-.32h5.83c.48,0,.82.11,1.03.32.21.21.32.56.32,1.03v18.62h5.15v-6.09c0-.48.11-.82.32-1.03.21-.21.56-.32,1.03-.32h5.45c.48,0,.82.11,1.03.32.21.21.32.56.32,1.03v11.85c0,.48-.11.82-.32,1.03-.21.21-.56.32-1.03.32Z"/><path class="cls-6" d="m909.12,1504.24h-17.45c-.48,0-.82-.11-1.03-.32-.21-.21-.32-.56-.32-1.03v-24.37c0-.48.11-.82.32-1.03.21-.21.56-.32,1.03-.32h17.45c.48,0,.82.11,1.03.32.21.21.32.56.32,1.03v4.4c0,.48-.11.82-.32,1.03-.21.21-.56.32-1.03.32h-10.38v2.9h7.33c.48,0,.82.11,1.03.32.21.21.32.56.32,1.03v4.02c0,.48-.11.82-.32,1.03-.21.21-.56.32-1.03.32h-7.33v3.23h10.38c.48,0,.82.11,1.03.32.21.21.32.56.32,1.03v4.4c0,.48-.11.82-.32,1.03-.21.21-.56.32-1.03.32Z"/><path class="cls-6" d="m921.9,1504.24h-5.64c-.48,0-.82-.11-1.03-.32-.21-.21-.32-.56-.32-1.03v-24.37c0-.48.11-.82.32-1.03.21-.21.56-.32,1.03-.32h3.91c.48,0,.88.08,1.22.23s.67.41,1,.79l7.3,8.35v-8.01c0-.48.11-.82.32-1.03.21-.21.56-.32,1.03-.32h5.64c.48,0,.82.11,1.03.32.21.21.32.56.32,1.03v24.37c0,.48-.11.82-.32,1.03-.21.21-.56.32-1.03.32h-5.64c-.48,0-.82-.11-1.03-.32-.21-.21-.32-.56-.32-1.03v-4.63l-6.43-7.79v12.41c0,.48-.11.82-.32,1.03-.21.21-.56.32-1.03.32Z"/><path class="cls-6" d="m957.26,1504.24h-12.67c-.48,0-.82-.11-1.03-.32-.21-.21-.32-.56-.32-1.03v-24.37c0-.48.11-.82.32-1.03.21-.21.56-.32,1.03-.32h12.67c3.13,0,5.46.63,6.98,1.88,1.52,1.25,2.28,3.18,2.28,5.79v11.73c0,2.61-.76,4.54-2.28,5.79-1.52,1.25-3.84,1.88-6.98,1.88Zm-5.49-19.9v12.79h4.48c.6,0,1.05-.15,1.33-.45.29-.3.43-.76.43-1.39v-9.14c0-.63-.14-1.08-.43-1.37-.29-.29-.73-.43-1.33-.43h-4.48Z"/><path class="cls-6" d="m987.42,1502.89c0,.48-.11.82-.32,1.03-.21.21-.56.32-1.03.32h-5.53c-.48,0-.82-.11-1.03-.32-.21-.21-.32-.56-.32-1.03v-9.93c0-.75.12-1.62.36-2.6.24-.98.61-2.12,1.11-3.42l3.27-8.54c.15-.43.38-.74.7-.94.31-.2.72-.3,1.22-.3h10.12c.48,0,.87.1,1.19.3.31.2.54.51.7.94l3.27,8.54c.5,1.3.87,2.44,1.11,3.42.24.98.36,1.84.36,2.6v9.93c0,.48-.11.82-.32,1.03s-.56.32-1.03.32h-5.68c-.5,0-.87-.11-1.11-.32-.24-.21-.36-.56-.36-1.03v-5.27h-6.66v5.27Zm2.14-17.83l-1.77,5.72h5.9l-1.77-5.72c-.1-.23-.21-.39-.32-.49-.11-.1-.24-.15-.39-.15h-.94c-.15,0-.28.05-.4.15-.11.1-.22.26-.32.49Z"/><path class="cls-6" d="m1031.46,1504.24h-14.44c-.48,0-.82-.11-1.03-.32-.21-.21-.32-.56-.32-1.03v-24.37c0-.48.11-.82.32-1.03s.56-.32,1.03-.32h12c2.46,0,4.27.47,5.45,1.41s1.77,2.39,1.77,4.34v1.81c0,1.05-.18,1.91-.54,2.58-.36.66-.92,1.16-1.67,1.49,1.6.15,2.8.7,3.57,1.65.78.95,1.17,2.34,1.17,4.17v3.46c0,2.11-.6,3.66-1.79,4.66s-3.03,1.5-5.51,1.5Zm-7.33-20.68v4.06h3.2c.48,0,.83-.12,1.07-.38.24-.25.36-.63.36-1.13v-1.05c0-.5-.12-.88-.36-1.13-.24-.25-.6-.38-1.07-.38h-3.2Zm0,9.85v4.44h4.89c.48,0,.83-.12,1.07-.38.24-.25.36-.63.36-1.13v-1.47c0-.5-.12-.87-.36-1.11-.24-.24-.6-.36-1.07-.36h-4.89Z"/><path class="cls-6" d="m1065.87,1497.13c0,1.15-.17,2.2-.51,3.14-.34.94-.94,1.74-1.8,2.41-.87.66-2.06,1.18-3.57,1.56-1.52.38-3.44.56-5.77.56s-4.26-.19-5.79-.56c-1.53-.38-2.73-.9-3.59-1.56s-1.47-1.47-1.81-2.41c-.34-.94-.51-1.99-.51-3.14v-12.82c0-1.15.17-2.2.51-3.14.34-.94.94-1.75,1.81-2.43s2.06-1.2,3.59-1.58c1.53-.38,3.46-.56,5.79-.56s4.26.19,5.77.56c1.52.38,2.71.9,3.57,1.58.86.68,1.47,1.49,1.8,2.43.34.94.51,1.99.51,3.14v12.82Zm-14.82-1.35c0,.5.19.92.56,1.26s1.24.51,2.59.51,2.22-.17,2.6-.51.56-.76.56-1.26v-10.12c0-.48-.19-.88-.56-1.22-.38-.34-1.24-.51-2.6-.51s-2.22.17-2.59.51c-.38.34-.56.75-.56,1.22v10.12Z"/><path class="cls-6" d="m1093.59,1497.13c0,1.15-.17,2.2-.51,3.14-.34.94-.94,1.74-1.8,2.41-.87.66-2.06,1.18-3.57,1.56-1.52.38-3.44.56-5.77.56s-4.26-.19-5.79-.56c-1.53-.38-2.73-.9-3.59-1.56s-1.47-1.47-1.81-2.41c-.34-.94-.51-1.99-.51-3.14v-12.82c0-1.15.17-2.2.51-3.14.34-.94.94-1.75,1.81-2.43s2.06-1.2,3.59-1.58c1.53-.38,3.46-.56,5.79-.56s4.26.19,5.77.56c1.52.38,2.71.9,3.57,1.58.86.68,1.47,1.49,1.8,2.43.34.94.51,1.99.51,3.14v12.82Zm-14.82-1.35c0,.5.19.92.56,1.26s1.24.51,2.59.51,2.22-.17,2.6-.51.56-.76.56-1.26v-10.12c0-.48-.19-.88-.56-1.22-.38-.34-1.24-.51-2.6-.51s-2.22.17-2.59.51c-.38.34-.56.75-.56,1.22v10.12Z"/><path class="cls-6" d="m1105.55,1504.24h-5.83c-.48,0-.82-.11-1.03-.32s-.32-.56-.32-1.03v-24.37c0-.48.11-.82.32-1.03.21-.21.56-.32,1.03-.32h5.83c.48,0,.82.11,1.03.32.21.21.32.56.32,1.03v8.65h1.5l3.87-8.76c.18-.45.41-.77.71-.96.3-.19.69-.28,1.17-.28h5.79c.43,0,.71.11.86.32.15.21.14.52-.04.92l-3.84,8.76c1.4.08,2.53.57,3.37,1.49.84.92,1.26,2.12,1.26,3.63v10.61c0,.48-.11.82-.32,1.03s-.56.32-1.03.32h-5.79c-.48,0-.82-.11-1.03-.32s-.32-.56-.32-1.03v-7.33c0-.4-.1-.71-.3-.94-.2-.23-.5-.34-.9-.34h-4.96v8.61c0,.48-.11.82-.32,1.03-.21.21-.56.32-1.03.32Z"/></g></g><rect class="cls-4" x="1" y="1" width="2000" height="2000"/></g></svg>